<svg width="84" height="84" viewBox="0 0 84 84" fill="none" xmlns="http://www.w3.org/2000/svg">
<g clip-path="url(#clip0_2306_35)">
<path fill-rule="evenodd" clip-rule="evenodd" d="M56.56 0.7C57.89 0.28 59.29 0.07 60.69 0.07L60.62 0C62.02 0 63.42 0.21 64.75 0.63C67.76 1.61 69.79 3.64 72.73 6.573L77.42 11.256C80.43 14.196 82.39 16.219 83.37 19.236C84.21 21.966 84.21 24.829 83.37 27.496C82.39 30.506 80.36 32.529 77.42 35.476L39.2 73.696C38.36 74.606 37.73 75.236 36.82 75.866C36.05 76.426 35.21 76.916 34.3 77.266C33.3276 77.6515 32.3226 77.949 31.297 78.155L31.227 78.169L8.687 83.839C8.127 84.049 7.567 84.049 7.007 84.049C5.187 84.049 3.367 83.349 2.037 82.019C1.17369 81.1698 0.550542 80.1073 0.230879 78.9393C-0.0887842 77.7713 -0.0935732 76.5394 0.216999 75.369L5.887 52.829L5.901 52.759C6.174 51.604 6.384 50.715 6.797 49.749C7.147 48.839 7.637 47.999 8.197 47.229C8.827 46.389 9.527 45.689 10.367 44.849L48.58 6.636C51.59 3.626 53.55 1.68 56.56 0.7ZM62.65 7.343C62.0155 7.14695 61.354 7.05245 60.69 7.063V7.133C59.99 7.133 59.36 7.203 58.73 7.413C57.33 7.833 56.07 9.093 53.55 11.613L49.056 16.107L67.956 35.007L72.499 30.471L73.157 29.792C75.173 27.727 76.251 26.621 76.699 25.291C77.119 24.031 77.119 22.631 76.699 21.371C76.279 19.971 75.019 18.711 72.499 16.198L67.809 11.515L67.137 10.857C65.065 8.841 63.966 7.763 62.636 7.322L62.65 7.343ZM63.028 39.963L44.128 21.063L15.428 49.833C15.1667 50.1223 14.938 50.365 14.742 50.561C14.1441 51.1293 13.6637 51.8095 13.328 52.563C13.195 52.822 13.118 53.137 13.013 53.564C12.9523 53.83 12.8707 54.1473 12.768 54.516L7.098 77.056L29.638 71.386C30.618 71.176 31.108 71.036 31.598 70.833C32.018 70.623 32.438 70.413 32.788 70.133C33.208 69.853 33.558 69.503 34.328 68.733L63.028 40.033V39.963Z" fill="#F10707"/>
</g>
<defs>
<clipPath id="clip0_2306_35">
<rect width="84" height="84" fill="white"/>
</clipPath>
</defs>
</svg>
